<svg xmlns="http://www.w3.org/2000/svg" version="1.1" xmlns:xlink="http://www.w3.org/1999/xlink" xmlns:svgjs="http://svgjs.dev/svgjs" width="1000" height="1000" viewBox="0 0 1000 1000"><rect width="1000" height="1000" fill="#001f3f"></rect><g transform="matrix(0.7,0,0,0.7,149.90044910179654,149.90044910179637)"><svg viewBox="0 0 334 334" data-background-color="#001f3f" preserveAspectRatio="xMidYMid meet" height="1000" width="1000" xmlns="http://www.w3.org/2000/svg" xmlns:xlink="http://www.w3.org/1999/xlink"><g id="tight-bounds" transform="matrix(1,0,0,1,0.04749999999998522,0.04750000000001364)"><svg viewBox="0 0 333.90454557049503 333.90454557049503" height="333.90454557049503" width="333.90454557049503"><g><svg></svg></g><g><svg viewBox="0 0 333.90454557049503 333.90454557049503" height="333.90454557049503" width="333.90454557049503"><g><path d="M0 166.952c0-92.205 74.747-166.952 166.952-166.952 92.205 0 166.952 74.747 166.953 166.952 0 92.205-74.747 166.952-166.953 166.953-92.205 0-166.952-74.747-166.952-166.953zM166.952 326.482c88.106 0 159.53-71.424 159.53-159.53 0-88.106-71.424-159.53-159.53-159.529-88.106 0-159.53 71.424-159.529 159.529 0 88.106 71.424 159.53 159.529 159.53z" data-fill-palette-color="tertiary" fill="#ffffff" stroke="transparent"></path><ellipse rx="160.27418187383762" ry="160.27418187383762" cx="166.95227278524752" cy="166.95227278524752" fill="#ffffff" stroke="transparent" stroke-width="0" fill-opacity="1" data-fill-palette-color="tertiary"></ellipse></g><g transform="matrix(1,0,0,1,94.16223224502247,71.17305217166896)"><svg viewBox="0 0 145.5800810804501 191.55844122715712" height="191.55844122715712" width="145.5800810804501"><g><svg viewBox="0 0 145.5800810804501 191.55844122715712" height="191.55844122715712" width="145.5800810804501"><g><svg viewBox="0 0 213.1584412271571 280.4799834760372" height="191.55844122715712" width="145.5800810804501"><g transform="matrix(1,0,0,1,0,159.96283816201415)"><svg viewBox="0 0 213.1584412271571 120.51714531402305" height="120.51714531402305" width="213.1584412271571"><g id="textblocktransform"><svg viewBox="0 0 213.1584412271571 120.51714531402305" height="120.51714531402305" width="213.1584412271571" id="textblock"><g><svg viewBox="0 0 213.1584412271571 120.51714531402305" height="120.51714531402305" width="213.1584412271571"><g transform="matrix(1,0,0,1,0,0)"><svg width="213.1584412271571" viewBox="1.7999999523162842 -35.400001525878906 63.85000228881836 36.10000228881836" height="120.51714531402305" data-palette-color="#b10dc9"><path d="M1.8-34.4L1.8-35.4Q3.05-35.35 5-35.3 6.95-35.25 8.9-35.25L8.9-35.25Q11.35-35.25 13.55-35.3 15.75-35.35 16.65-35.35L16.65-35.35Q23.35-35.35 26.63-32.6 29.9-29.85 29.9-25.5L29.9-25.5Q29.9-23.7 29.25-21.73 28.6-19.75 27-18.07 25.4-16.4 22.63-15.35 19.85-14.3 15.55-14.3L15.55-14.3 10.55-14.3 10.55-15.3 15.05-15.3Q18.2-15.3 19.88-16.65 21.55-18 22.13-20.2 22.7-22.4 22.7-24.95L22.7-24.95Q22.7-29.7 21.15-32.05 19.6-34.4 15.8-34.4L15.8-34.4Q13.75-34.4 13.13-33.55 12.5-32.7 12.5-30.1L12.5-30.1 12.5-5.5Q12.5-3.6 12.9-2.65 13.3-1.7 14.45-1.4 15.6-1.1 17.75-1.05L17.75-1.05 17.75 0Q16.3-0.1 14-0.13 11.7-0.15 9.25-0.15L9.25-0.15Q7.15-0.15 5.2-0.13 3.25-0.1 1.8 0L1.8 0 1.8-1Q3.45-1.1 4.28-1.4 5.1-1.7 5.38-2.6 5.65-3.5 5.65-5.3L5.65-5.3 5.65-30.1Q5.65-31.95 5.38-32.83 5.1-33.7 4.28-34.02 3.45-34.35 1.8-34.4L1.8-34.4ZM32.75-34.4L32.75-35.4Q34-35.35 35.95-35.3 37.9-35.25 39.85-35.25L39.85-35.25Q42.3-35.25 44.5-35.3 46.7-35.35 47.6-35.35L47.6-35.35Q54.3-35.35 57.57-33 60.85-30.65 60.85-26.65L60.85-26.65Q60.85-25 60.2-23.28 59.55-21.55 57.95-20.1 56.35-18.65 53.57-17.73 50.8-16.8 46.5-16.8L46.5-16.8 41.7-16.8 41.7-17.8 46-17.8Q49.15-17.8 50.82-18.93 52.5-20.05 53.07-21.93 53.65-23.8 53.65-26.1L53.65-26.1Q53.65-30.05 52.1-32.23 50.55-34.4 46.75-34.4L46.75-34.4Q44.7-34.4 44.07-33.55 43.45-32.7 43.45-30.1L43.45-30.1 43.45-5.3Q43.45-3.5 43.75-2.6 44.05-1.7 44.87-1.4 45.7-1.1 47.3-1L47.3-1 47.3 0Q46.05-0.1 44.1-0.13 42.15-0.15 40.15-0.15L40.15-0.15Q37.9-0.15 35.95-0.13 34-0.1 32.75 0L32.75 0 32.75-1Q34.4-1.1 35.22-1.4 36.05-1.7 36.32-2.6 36.6-3.5 36.6-5.3L36.6-5.3 36.6-30.1Q36.6-31.95 36.32-32.83 36.05-33.7 35.22-34.02 34.4-34.35 32.75-34.4L32.75-34.4ZM41.8-16.8L41.7-17.65Q44.05-17.55 45.62-17.43 47.2-17.3 48.32-17.2 49.45-17.1 50.35-16.95L50.35-16.95Q54.5-16.55 56.47-15.03 58.45-13.5 59.1-10.4L59.1-10.4 60.25-5.25Q60.7-3.2 61.22-2.33 61.75-1.45 62.75-1.5L62.75-1.5Q63.45-1.5 63.95-1.88 64.45-2.25 64.95-2.9L64.95-2.9 65.65-2.3Q64.4-0.75 63-0.03 61.6 0.7 59.45 0.7L59.45 0.7Q57.05 0.7 55.4-0.43 53.75-1.55 53.15-4.7L53.15-4.7 52.2-9.7Q51.8-11.8 51.27-13.4 50.75-15 49.85-15.9 48.95-16.8 47.2-16.8L47.2-16.8 41.8-16.8Z" opacity="1" transform="matrix(1,0,0,1,0,0)" fill="#b10dc9" class="wordmark-text-0" data-fill-palette-color="quaternary" id="text-0"></path></svg></g></svg></g></svg></g></svg></g><g transform="matrix(1,0,0,1,40.713262274387006,0)"><svg viewBox="0 0 131.7319166783831 131.51163256486083" height="131.51163256486083" width="131.7319166783831"><g><svg xmlns="http://www.w3.org/2000/svg" xmlns:xlink="http://www.w3.org/1999/xlink" version="1.1" x="0" y="0" viewBox="24.19999885559082 22.69999885559082 59.80000305175781 59.70000457763672" enable-background="new 0 0 100 100" xml:space="preserve" height="131.51163256486083" width="131.7319166783831" class="icon-icon-0" data-fill-palette-color="quaternary" id="icon-0"><path d="M54.1 82.4C70.6 82.4 84 69.1 84 52.6c0-16.5-13.4-29.9-29.9-29.9-16.5 0-29.9 13.4-29.9 29.9C24.3 69 37.6 82.4 54.1 82.4zM41.4 46.3c1.7 0 3.3 0.7 4.4 1.9l10-6.1c-0.2-0.6-0.3-1.3-0.3-2 0-3.4 2.8-6.2 6.2-6.2 3.4 0 6.2 2.8 6.2 6.2 0 3.4-2.8 6.2-6.2 6.2-1.7 0-3.3-0.7-4.4-1.9l-10 6.1c0.2 0.6 0.3 1.3 0.3 2 0 0.7-0.1 1.3-0.3 2l10 6.1c1.1-1.1 2.7-1.9 4.4-1.9 3.4 0 6.2 2.8 6.2 6.2s-2.8 6.2-6.2 6.2c-3.4 0-6.2-2.8-6.2-6.2 0-0.7 0.1-1.3 0.3-2l-10-6.1c-1.1 1.1-2.7 1.9-4.4 1.9-3.4 0-6.2-2.8-6.2-6.2C35.1 49.1 37.9 46.3 41.4 46.3z" fill="#b10dc9" data-fill-palette-color="quaternary"></path></svg></g></svg></g><g></g></svg></g></svg></g></svg></g></svg></g><defs></defs></svg><rect width="333.90454557049503" height="333.90454557049503" fill="none" stroke="none" visibility="hidden"></rect></g></svg></g></svg>